<svg width="1167" height="349" viewBox="0 0 1167 349" fill="none" xmlns="http://www.w3.org/2000/svg">
<path d="M370.69 215.111C370.69 204.181 374.36 195.011 381.61 187.861C385.081 184.364 389.223 181.605 393.787 179.75C398.352 177.896 403.244 176.985 408.17 177.071H409.37V166.891H408.17C394.75 166.891 383.17 171.451 373.69 180.441C364.21 189.431 359.4 201.111 359.4 215.111V345.111H370.69V297.281H409.69V287.101H370.69V215.111Z" fill="#006087"/>
<path d="M444.431 217.811H433.141V345.131H444.431V217.811Z" fill="#006087"/>
<path d="M537.56 214.48C516.08 214.48 500.22 222.85 490.34 239.38V217.54H479.05V345.14H490.33V271.04C490.33 258.64 495.12 247.69 504.57 238.51C514.02 229.33 525.13 224.65 537.57 224.65C543.55 224.584 549.477 225.782 554.962 228.165C560.448 230.548 565.367 234.064 569.4 238.48C573.626 242.777 576.964 247.864 579.224 253.45C581.484 259.037 582.621 265.014 582.57 271.04V345.14H593.86V271.04C593.86 255.39 588.41 241.91 577.66 230.97C566.91 220.03 553.4 214.48 537.56 214.48Z" fill="#006087"/>
<path d="M674.531 272.529C668.621 268.839 662.661 265.319 656.811 262.069C651.47 259.167 646.503 255.624 642.021 251.519C638.021 247.829 636.141 243.929 636.141 239.599C636.113 237.527 636.563 235.477 637.456 233.608C638.349 231.738 639.661 230.099 641.291 228.819C644.615 225.924 648.882 224.342 653.291 224.369C662.031 224.369 669.081 228.569 674.831 237.199L677.021 240.479V224.669L676.71 224.329C670.56 217.609 663.061 214.199 654.401 214.199C645.741 214.199 638.661 216.589 633.171 221.299C627.681 226.009 624.831 231.989 624.831 238.899C624.747 245.495 627.073 251.895 631.371 256.899C635.729 261.987 640.911 266.307 646.701 269.679C652.541 273.113 658.431 276.589 664.371 280.109C670.003 283.411 675.029 287.652 679.23 292.649C683.23 297.409 685.23 303.379 685.23 310.389C685.23 317.399 682.04 323.719 675.74 329.389C669.44 335.059 661.501 337.989 652.201 337.989C636.991 337.989 626.201 330.569 619.341 315.319L617.061 315.809V329.469L617.21 329.739C620.27 335.309 625.21 339.829 631.76 343.169C638.353 346.5 645.644 348.214 653.031 348.169C664.421 348.405 675.451 344.173 683.76 336.379C692.23 328.489 696.521 318.779 696.521 307.539C696.621 300.201 694.344 293.027 690.031 287.089C685.854 281.279 680.59 276.335 674.531 272.529Z" fill="#006087"/>
<path d="M739.989 325.84C732.739 318.69 729.069 309.52 729.069 298.59V227.99H767.469V217.82H729.069V167.17H717.779V298.59C717.779 312.59 722.589 324.26 732.069 333.26C741.549 342.26 753.129 346.81 766.559 346.81H767.749V336.63H766.559C761.632 336.717 756.737 335.806 752.171 333.952C747.605 332.098 743.461 329.338 739.989 325.84Z" fill="#006087"/>
<path d="M903.66 244.89C899.08 236.49 892.07 229.51 882.77 224.1C872.276 217.855 860.301 214.533 848.09 214.48C829.66 214.48 813.65 221.1 800.5 234.16C787.35 247.22 780.67 263.1 780.67 281.34C780.67 299.58 787.34 315.45 800.5 328.51C813.66 341.57 829.66 348.2 848.09 348.2C860.06 348.215 871.81 344.984 882.09 338.85C890.989 333.697 898.416 326.346 903.66 317.5V345.14H914.95V217.54H903.66V244.89ZM887.72 241.54C898.66 252.77 904.21 266.2 904.21 281.48C904.21 296.76 898.71 310.14 887.86 321.26C877.01 332.38 863.77 338.02 848.5 338.02C833.23 338.02 819.84 332.38 808.72 321.26C797.6 310.14 791.96 296.8 791.96 281.62C791.96 266.44 797.6 253 808.73 241.69C819.86 230.38 833.19 224.69 848.37 224.69C863.55 224.69 876.78 230.38 887.72 241.54Z" fill="#006087"/>
<path d="M1007.52 215.029C988.36 215.029 971.98 221.659 958.82 234.719C945.66 247.779 938.99 263.519 938.99 281.479C938.99 299.439 945.56 315.299 958.52 328.639C971.48 341.979 987.23 348.759 1005.29 348.759H1007.8C1027.16 348.759 1043.66 341.419 1056.8 326.939L1057.11 326.599V307.689L1054.92 311.009C1049.49 319.357 1042.13 326.286 1033.48 331.219C1025.25 336.005 1015.91 338.543 1006.39 338.579C991.39 338.579 978.15 332.939 967.02 321.819C955.89 310.699 950.33 297.259 950.33 281.889C950.33 266.519 955.97 253.099 967.09 241.969C978.21 230.839 991.46 225.209 1006.46 225.209C1015.98 225.245 1025.32 227.783 1033.55 232.569C1042.15 237.457 1049.5 244.285 1055 252.509L1057.18 255.749V237.179L1056.86 236.839C1043.33 222.379 1026.69 215.029 1007.52 215.029Z" fill="#006087"/>
<path d="M1093.84 268.889L1152.61 217.529H1137.57L1089.68 259.499V134.609H1078.39V345.129H1089.68V280.959L1151.43 345.129H1166.69L1093.84 268.889Z" fill="#006087"/>
<path d="M510.26 149.17L485.39 83.4501H476.13L451.56 149.17L426.05 82.1602H416.37L447.77 162.5H454.74L480.61 95.3801L506.78 162.5H513.76L544.82 82.1602H535.47L510.26 149.17Z" fill="#434448"/>
<path d="M601.861 80.2305C581.221 80.2305 560.391 93.3505 560.391 122.66C560.391 151.97 581.221 165.09 601.861 165.09C622.501 165.09 643.331 151.97 643.331 122.66C643.331 93.3505 622.491 80.2305 601.861 80.2305ZM601.861 157.3C582.181 157.3 569.471 143.7 569.471 122.66C569.471 101.62 582.181 88.0105 601.861 88.0105C621.541 88.0105 634.24 101.61 634.24 122.66C634.24 143.71 621.531 157.3 601.861 157.3Z" fill="#434448"/>
<path d="M778.311 82.1602L753.101 149.17L728.231 83.4501H718.971L694.401 149.17L668.891 82.1602H659.211L690.611 162.5H697.581L723.451 95.3801L749.621 162.5H756.601L787.661 82.1602H778.311Z" fill="#434448"/>
<path d="M297.96 166.07H275.43L264.43 185.07L229.7 245.38L225.92 251.92L222.15 245.38L187.33 185.04L183.57 178.54H268.15L216.62 89.27L165.08 0L134.08 53.76L103.08 0L51.5399 89.27L0 178.54H84.61L95.61 159.54L130.42 99.24L134.19 92.7L137.97 99.24L172.78 159.54L176.54 166.04H91.96L143.33 255.38L194.87 344.65L225.87 290.89L256.87 344.65L308.49 255.38L360.03 166.11L297.96 166.07ZM113.58 89.27L72.99 159.57H33.4299L68.24 99.27L103.05 38.98L122.83 73.25L113.58 89.27ZM154.58 89.27L145.32 73.27L165.11 39L199.92 99.29L234.73 159.59H195.16L154.58 89.27ZM194.88 305.63L160.08 245.38L125.27 185.08H164.83L205.42 255.38L214.67 271.38L194.88 305.63ZM291.77 245.38L256.96 305.67L237.17 271.38L246.43 255.38L287.01 185.08H326.58L291.77 245.38Z" fill="#434448"/>
</svg>
