<svg width="32" height="32" viewBox="0 0 32 32" fill="none" xmlns="http://www.w3.org/2000/svg">
<path d="M16 32C24.8366 32 32 24.8366 32 16C32 7.16345 24.8366 0 16 0C7.16344 0 0 7.16345 0 16C0 24.8366 7.16344 32 16 32Z" fill="#006087"/>
<path d="M23.9195 15.5809H22.4065L21.669 16.8549L19.3319 20.9044L19.0789 21.3433L18.8258 20.9044L16.4887 16.8549L16.2356 16.4181H21.9221L18.4623 10.4249L15.002 4.43164L12.9181 8.04024L10.8346 4.43164L7.37434 10.4249L3.91406 16.4181H9.59446L10.3305 15.144H10.3279L12.6655 11.0946L12.9186 10.6557L13.1717 11.0946L15.5087 15.144L15.7618 15.5809H10.0774L13.5371 21.5741L16.9974 27.5673L19.0814 23.9587L21.1648 27.5673L24.6251 21.5741L28.0854 15.5809H23.9195ZM11.5402 10.4249L8.81543 15.144H6.15897L8.49603 11.0946L10.8331 7.04508L12.1613 9.34569L11.5402 10.4249ZM14.2934 10.4249L13.6713 9.34872L14.9995 7.04812L17.3366 11.0976L19.6736 15.1471H17.0172L14.2934 10.4249ZM16.9989 24.9524L14.6619 20.9029L12.3248 16.8534H14.9813L17.7061 21.5726L18.3272 22.6487L16.9989 24.9524ZM23.5034 20.9029L21.1664 24.9524L19.8381 22.6518L20.4592 21.5756L23.184 16.8565H25.8405L23.5034 20.9029Z" fill="white"/>
</svg>
